<svg width="37" height="37" viewBox="0 0 37 37" fill="none" xmlns="http://www.w3.org/2000/svg">
<path d="M8.34658 9.25018C6.26295 9.26731 4.23843 10.3544 3.12482 12.2832C1.45281 15.1791 2.44313 18.9177 5.34987 20.5783L13.2141 25.0941L13.2247 25.1007C14.2139 25.6718 15.4235 25.414 16.4903 24.7603C17.2498 24.2949 17.9826 23.6137 18.6276 22.7653C18.7447 23.0096 18.8726 23.2536 19.0128 23.4962C19.8045 24.8676 20.8191 25.9451 21.8858 26.5986C22.7287 27.115 23.6607 27.3839 24.1066 27.3333L25.1407 26.9448L25.1513 26.9389L25.1568 26.9354L33.0275 22.4158C35.9333 20.7548 36.9229 17.017 35.2511 14.1215C34.1376 12.1927 32.1132 11.1056 30.0295 11.0885C29.9624 11.088 29.8951 11.0886 29.8277 11.0903C28.8184 11.1152 27.8315 11.3933 26.9577 11.8989C23.2302 14.051 21.6057 15.0038 20.2878 15.7709C20.0713 15.2904 19.7407 14.8882 19.2758 14.6199C19.2156 14.5854 19.1539 14.5537 19.0908 14.5249L19.0952 14.5172C17.488 13.5893 16.1184 12.7741 11.4184 10.0606C10.5446 9.5549 9.5577 9.27684 8.54842 9.25192C8.48112 9.25028 8.41384 9.24965 8.34658 9.25018ZM8.27996 10.5956C9.11462 10.5776 9.96534 10.7811 10.7433 11.2301C13.7997 12.9948 15.3969 13.9271 16.6185 14.6396C16.4089 14.7329 16.2058 14.84 16.0104 14.9602C14.9436 15.6138 13.9289 16.6914 13.1371 18.0628C12.3453 19.4343 11.9194 20.8517 11.8869 22.1023C11.8808 22.335 11.8893 22.5653 11.9131 22.7894L6.02057 19.4058C3.75475 18.1114 2.98787 15.2215 4.29458 12.9583C5.15216 11.4731 6.68672 10.6303 8.27996 10.5956ZM18.0144 15.6557C18.0973 15.6535 18.1759 15.6584 18.2499 15.6698C18.3815 15.6898 18.4988 15.7305 18.6006 15.7893C18.8131 15.912 18.9907 16.1338 19.1089 16.4536L19.1004 16.4582C19.0818 16.4689 19.0639 16.4802 19.0459 16.4914L18.3613 17.0197C18.015 17.3526 17.734 18.3768 17.7622 19.4565C17.777 20.0205 17.8724 20.6185 18.0446 21.231C17.3754 22.3096 16.5482 23.1409 15.7848 23.6086C14.9639 24.1116 14.3077 24.166 13.9003 23.9309L13.8947 23.9273C13.4904 23.69 13.2118 23.0958 13.2368 22.1375C13.2619 21.175 13.614 19.9378 14.3067 18.7382C14.9994 17.5383 15.8947 16.615 16.7159 16.1118C17.2163 15.8053 17.6556 15.6651 18.0144 15.6557Z" fill="#5B32F4"/>
</svg>
