<svg width="32" height="32" viewBox="0 0 32 32" fill="none" xmlns="http://www.w3.org/2000/svg">
<path d="M16 5.33313H7.33331C6.22874 5.33313 5.33331 6.22856 5.33331 7.33313V24.6665C5.33331 25.771 6.22875 26.6665 7.33332 26.6665H24.6666C25.7712 26.6665 26.6666 25.771 26.6666 24.6665V15.9998M24.5523 11.2187L25.9999 9.77106C27.0413 8.72966 27.0413 7.04123 25.9999 5.99984C24.9585 4.95843 23.2701 4.95844 22.2287 5.99985L20.781 7.4475M24.5523 11.2187L16.5039 19.2672C16.1316 19.6395 15.6575 19.8932 15.1413 19.9965L11.2189 20.781L12.0034 16.8586C12.1067 16.3424 12.3604 15.8683 12.7327 15.496L20.781 7.4475M24.5523 11.2187L20.781 7.4475" stroke="#5B32F4" stroke-width="2" stroke-linecap="round" stroke-linejoin="round"/>
</svg>
