<svg width="34" height="34" viewBox="0 0 34 34" fill="none" xmlns="http://www.w3.org/2000/svg">
<path d="M17 5.6667H7.66669C6.56212 5.6667 5.66669 6.56213 5.66669 7.66669V26.3334C5.66669 27.4379 6.56212 28.3334 7.66668 28.3334H26.3334C27.4379 28.3334 28.3334 27.4379 28.3334 26.3334V17M26.0868 11.9202L27.625 10.382C28.7314 9.27551 28.7314 7.48155 27.625 6.37507C26.5185 5.26858 24.7245 5.26859 23.618 6.37509L22.0799 7.91321M26.0868 11.9202L17.5354 20.4717C17.1399 20.8672 16.6361 21.1368 16.0876 21.2465L11.9202 22.08L12.7537 17.9125C12.8634 17.364 13.133 16.8603 13.5285 16.4647L22.0799 7.91321M26.0868 11.9202L22.0799 7.91321" stroke="#5B32F4" stroke-width="2" stroke-linecap="round" stroke-linejoin="round"/>
</svg>
