<svg width="50" height="50" viewBox="0 0 50 50" fill="none" xmlns="http://www.w3.org/2000/svg">
<path d="M25 30.4688C29.585 30.4688 33.3008 26.7969 33.3008 22.2656V11.3281C33.3008 6.79687 29.585 3.125 25 3.125C20.415 3.125 16.6992 6.79687 16.6992 11.3281V22.2656C16.6992 26.7969 20.415 30.4688 25 30.4688ZM41.1133 22.168C41.1133 21.9531 40.9375 21.7773 40.7227 21.7773H37.793C37.5781 21.7773 37.4023 21.9531 37.4023 22.168C37.4023 29.0186 31.8506 34.5703 25 34.5703C18.1494 34.5703 12.5977 29.0186 12.5977 22.168C12.5977 21.9531 12.4219 21.7773 12.207 21.7773H9.27734C9.0625 21.7773 8.88672 21.9531 8.88672 22.168C8.88672 30.4053 15.0684 37.2021 23.0469 38.1641V43.1641H15.9521C15.2832 43.1641 14.7461 43.8623 14.7461 44.7266V46.4844C14.7461 46.6992 14.8828 46.875 15.0488 46.875H34.9512C35.1172 46.875 35.2539 46.6992 35.2539 46.4844V44.7266C35.2539 43.8623 34.7168 43.1641 34.0479 43.1641H26.7578V38.1885C34.8291 37.3096 41.1133 30.4736 41.1133 22.168Z" fill="white"/>
</svg>
