<svg width="50" height="50" viewBox="0 0 50 50" fill="none" xmlns="http://www.w3.org/2000/svg">
<path d="M44.5312 7.8125V15.625C44.5312 16.2466 44.2843 16.8427 43.8448 17.2823C43.4052 17.7218 42.8091 17.9687 42.1875 17.9688C41.5659 17.9687 40.9698 17.7218 40.5302 17.2823C40.0907 16.8427 39.8438 16.2466 39.8438 15.625V10.1562H34.375C33.7534 10.1562 33.1573 9.90932 32.7177 9.46978C32.2782 9.03024 32.0312 8.4341 32.0312 7.8125C32.0312 7.1909 32.2782 6.59476 32.7177 6.15522C33.1573 5.71568 33.7534 5.46875 34.375 5.46875H42.1875C42.8091 5.46875 43.4052 5.71568 43.8448 6.15522C44.2843 6.59476 44.5312 7.1909 44.5312 7.8125ZM15.625 39.8438H10.1562V34.375C10.1562 33.7534 9.90932 33.1573 9.46978 32.7177C9.03024 32.2782 8.4341 32.0312 7.8125 32.0312C7.1909 32.0312 6.59476 32.2782 6.15522 32.7177C5.71568 33.1573 5.46875 33.7534 5.46875 34.375V42.1875C5.46875 42.8091 5.71568 43.4052 6.15522 43.8448C6.59476 44.2843 7.1909 44.5312 7.8125 44.5312H15.625C16.2466 44.5312 16.8427 44.2843 17.2823 43.8448C17.7218 43.4052 17.9687 42.8091 17.9688 42.1875C17.9687 41.5659 17.7218 40.9698 17.2823 40.5302C16.8427 40.0907 16.2466 39.8438 15.625 39.8438ZM42.1875 32.0312C41.5659 32.0312 40.9698 32.2782 40.5302 32.7177C40.0907 33.1573 39.8438 33.7534 39.8438 34.375V39.8438H34.375C33.7534 39.8438 33.1573 40.0907 32.7177 40.5302C32.2782 40.9698 32.0312 41.5659 32.0312 42.1875C32.0312 42.8091 32.2782 43.4052 32.7177 43.8448C33.1573 44.2843 33.7534 44.5312 34.375 44.5312H42.1875C42.8091 44.5312 43.4052 44.2843 43.8448 43.8448C44.2843 43.4052 44.5312 42.8091 44.5312 42.1875V34.375C44.5312 33.7534 44.2843 33.1573 43.8448 32.7177C43.4052 32.2782 42.8091 32.0312 42.1875 32.0312ZM7.8125 17.9688C8.4341 17.9687 9.03024 17.7218 9.46978 17.2823C9.90932 16.8427 10.1562 16.2466 10.1562 15.625V10.1562H15.625C16.2466 10.1562 16.8427 9.90932 17.2823 9.46978C17.7218 9.03024 17.9687 8.4341 17.9688 7.8125C17.9687 7.1909 17.7218 6.59476 17.2823 6.15522C16.8427 5.71568 16.2466 5.46875 15.625 5.46875H7.8125C7.1909 5.46875 6.59476 5.71568 6.15522 6.15522C5.71568 6.59476 5.46875 7.1909 5.46875 7.8125V15.625C5.46875 16.2466 5.71568 16.8427 6.15522 17.2823C6.59476 17.7218 7.1909 17.9687 7.8125 17.9688ZM16.4062 14.0625H33.5938C34.2154 14.0625 34.8115 14.3094 35.251 14.749C35.6906 15.1885 35.9375 15.7846 35.9375 16.4062V33.5938C35.9375 34.2154 35.6906 34.8115 35.251 35.251C34.8115 35.6906 34.2154 35.9375 33.5938 35.9375H16.4062C15.7846 35.9375 15.1885 35.6906 14.749 35.251C14.3094 34.8115 14.0625 34.2154 14.0625 33.5938V16.4062C14.0625 15.7846 14.3094 15.1885 14.749 14.749C15.1885 14.3094 15.7846 14.0625 16.4062 14.0625ZM18.75 31.25H31.25V18.75H18.75V31.25Z" fill="white"/>
</svg>
