<svg width="32" height="32" viewBox="0 0 32 32" fill="none" xmlns="http://www.w3.org/2000/svg">
<path d="M6.66669 25.3333V13.744C6.66669 13.4027 6.74313 13.0795 6.89602 12.7747C7.04891 12.4698 7.25958 12.2187 7.52802 12.0213L14.708 6.58399C15.084 6.29688 15.5134 6.15332 15.996 6.15332C16.4787 6.15332 16.9107 6.29688 17.292 6.58399L24.472 12.02C24.7414 12.2173 24.952 12.4689 25.104 12.7747C25.2569 13.0795 25.3334 13.4027 25.3334 13.744V25.3333C25.3334 25.6907 25.2005 26.0022 24.9347 26.268C24.6689 26.5338 24.3574 26.6667 24 26.6667H19.488C19.1822 26.6667 18.9262 26.5635 18.72 26.3573C18.5138 26.1502 18.4107 25.8942 18.4107 25.5893V19.2307C18.4107 18.9258 18.3076 18.6702 18.1014 18.464C17.8942 18.2569 17.6382 18.1533 17.3334 18.1533H14.6667C14.3618 18.1533 14.1062 18.2569 13.9 18.464C13.6929 18.6702 13.5894 18.9258 13.5894 19.2307V25.5907C13.5894 25.8955 13.4862 26.1511 13.28 26.3573C13.0738 26.5635 12.8182 26.6667 12.5134 26.6667H8.00002C7.64269 26.6667 7.33113 26.5338 7.06535 26.268C6.79958 26.0022 6.66669 25.6907 6.66669 25.3333Z" fill="#5B32F4"/>
</svg>
