<svg width="33" height="32" viewBox="0 0 33 32" fill="none" xmlns="http://www.w3.org/2000/svg">
<path d="M16.5 19.5C19.4344 19.5 21.8125 17.15 21.8125 14.25V7.25C21.8125 4.35 19.4344 2 16.5 2C13.5656 2 11.1875 4.35 11.1875 7.25V14.25C11.1875 17.15 13.5656 19.5 16.5 19.5ZM26.8125 14.1875C26.8125 14.05 26.7 13.9375 26.5625 13.9375H24.6875C24.55 13.9375 24.4375 14.05 24.4375 14.1875C24.4375 18.5719 20.8844 22.125 16.5 22.125C12.1156 22.125 8.5625 18.5719 8.5625 14.1875C8.5625 14.05 8.45 13.9375 8.3125 13.9375H6.4375C6.3 13.9375 6.1875 14.05 6.1875 14.1875C6.1875 19.4594 10.1438 23.8094 15.25 24.425V27.625H10.7094C10.2813 27.625 9.9375 28.0719 9.9375 28.625V29.75C9.9375 29.8875 10.025 30 10.1313 30H22.8687C22.975 30 23.0625 29.8875 23.0625 29.75V28.625C23.0625 28.0719 22.7188 27.625 22.2906 27.625H17.625V24.4406C22.7906 23.8781 26.8125 19.5031 26.8125 14.1875Z" fill="#828282"/>
</svg>
