<svg width="30" height="31" viewBox="0 0 30 31" fill="none" xmlns="http://www.w3.org/2000/svg">
<g clip-path="url(#clip0_215_1068)">
<path d="M17.7961 24.25C18.8774 24.25 19.4486 25.53 18.7274 26.335C18.2584 26.8588 17.6843 27.2779 17.0424 27.5648C16.4006 27.8517 15.7054 28 15.0024 28C14.2993 28 13.6042 27.8517 12.9623 27.5648C12.3205 27.2779 11.7463 26.8588 11.2774 26.335C10.5874 25.565 11.0799 24.3612 12.0699 24.2588L12.2074 24.2512L17.7961 24.25ZM15.0024 3C16.6999 3 18.1349 4.12875 18.5961 5.67625L18.6536 5.89L18.6636 5.94375C20.0418 6.72089 21.2162 7.81358 22.0905 9.13225C22.9649 10.4509 23.5142 11.958 23.6936 13.53L23.7286 13.8888L23.7524 14.25V17.9137L23.7786 18.0838C23.9498 19.0048 24.4595 19.8284 25.2074 20.3925L25.4161 20.5387L25.6186 20.6625C26.6936 21.2712 26.3186 22.87 25.1474 22.9925L25.0024 23H5.00238C3.71738 23 3.26863 21.295 4.38613 20.6625C4.86241 20.393 5.27393 20.0224 5.5918 19.577C5.90967 19.1315 6.12617 18.6218 6.22613 18.0838L6.25238 17.905L6.25363 14.1925C6.32984 12.5598 6.80508 10.9708 7.63773 9.56433C8.47039 8.15791 9.63508 6.97701 11.0299 6.125L11.3399 5.9425L11.3524 5.88875C11.5287 5.14104 11.9304 4.46552 12.5032 3.95356C13.076 3.4416 13.7921 3.1179 14.5549 3.02625L14.7824 3.005L15.0024 3Z" fill="#828282"/>
<circle cx="26.25" cy="4.25" r="3.75" fill="#5B32F4"/>
</g>
<defs>
<clipPath id="clip0_215_1068">
<rect width="30" height="30" fill="white" transform="translate(0 0.5)"/>
</clipPath>
</defs>
</svg>
